<?xml version="1.0" encoding="utf-8"?>
<!-- Generator: Adobe Illustrator 24.0.3, SVG Export Plug-In . SVG Version: 6.00 Build 0)  -->
<svg version="1.1" id="Layer_1" xmlns="http://www.w3.org/2000/svg" xmlns:xlink="http://www.w3.org/1999/xlink" x="0px" y="0px"
	 viewBox="0 0 445.64 402.67" style="enable-background:new 0 0 445.64 402.67;" xml:space="preserve">
<style type="text/css">
	.st0{fill:#0DA464;}
	.st1{fill:#9ACA3C;}
	.st2{fill:#FFFFFF;}
</style>
<polygon class="st0" points="391.87,291.41 53.58,291.41 0,151.83 56.98,6.12 395.28,6.12 445.64,151.83 "/>
<polygon class="st1" points="394.3,174.73 368.29,246.74 81.81,246.76 46.17,151.39 85.18,53.85 367.13,53.93 392.7,124.98 
	414.83,124.98 378.78,29.85 73.53,29.85 24.88,151.24 67.57,269.22 380.61,269.21 414.83,174.73 "/>
<g>
	<path class="st2" d="M365.7,149.91c0-40.5-32.83-73.33-73.33-73.33c-35.93,0-65.8,25.84-72.09,59.95
		c-2.13-11.53-6.94-22.11-13.78-31.08c-7.61,2.49-14.35,6.89-19.68,12.62c7.13,8.65,11.42,19.74,11.42,31.83
		c0,27.64-22.41,50.05-50.05,50.05c-27.64,0-50.05-22.41-50.05-50.05c0-27.64,22.41-50.05,50.05-50.05c4.64,0,9.1,0.68,13.36,1.86
		c5.53-6.81,12.19-12.66,19.71-17.25c-9.94-5.03-21.17-7.88-33.07-7.88c-40.5,0-73.33,32.83-73.33,73.33
		c0,40.5,32.83,73.33,73.33,73.33c35.93,0,65.8-25.84,72.09-59.95c2.15,11.68,7.07,22.39,14.06,31.43
		c7.74-2.3,14.65-6.53,20.14-12.16c-7.56-8.77-12.16-20.16-12.16-32.64c0-27.64,22.41-50.05,50.05-50.05
		c27.64,0,50.05,22.41,50.05,50.05c0,27.64-22.41,50.05-50.05,50.05c-4.19,0-8.23-0.57-12.11-1.54
		c-5.65,6.89-12.46,12.77-20.15,17.34c9.68,4.75,20.56,7.44,32.07,7.46l0,0.01h70.54v-21.88H344.6
		C357.64,188.12,365.7,169.96,365.7,149.91z"/>
	<path class="st2" d="M164.1,103.76l-1.35,1.67l-0.02-0.01c-9.42,12.33-15.03,27.73-15.03,44.46c0,16.71,5.6,32.1,15.01,44.43
		c7.61-2.49,14.34-6.89,19.67-12.62c-7.12-8.65-11.4-19.73-11.4-31.81c0-12.14,4.32-23.26,11.51-31.93l-0.02-0.03l1.96-2.11
		c0.03-0.03,0.06-0.06,0.09-0.1c2.02-2.16,4.24-4.14,6.61-5.91c0.21-0.15,0.41-0.31,0.62-0.46c0.76-0.54,1.52-1.08,2.31-1.58
		c0.22-0.14,0.44-0.27,0.66-0.4c1.29-0.8,2.61-1.54,3.97-2.22c0.55-0.28,1.11-0.54,1.67-0.8c0.63-0.29,1.26-0.57,1.91-0.84
		c1.05-0.43,2.12-0.83,3.21-1.18l0.29-0.1c0.19-0.06,0.38-0.13,0.58-0.19l1.35-0.45l0.06,0.08c4.23-1.16,8.66-1.83,13.26-1.83
		c4.18,0,8.22,0.57,12.1,1.53c5.66-6.91,12.48-12.78,20.15-17.34c-9.73-4.78-20.68-7.47-32.25-7.47c-13.29,0-25.74,3.55-36.49,9.74
		l-1.56,0.95C175.79,91.62,169.44,97.18,164.1,103.76z"/>
	<path class="st2" d="M277.72,196.31l1.31-1.61h0c4.95-6.39,8.84-13.63,11.47-21.45h-25.3c-1.78,3.35-3.88,6.49-6.34,9.33l0.07,0.08
		l-2.11,2.16c-0.01,0.01-0.03,0.02-0.04,0.03c-0.45,0.46-0.93,0.9-1.4,1.34c-0.51,0.49-1.03,0.96-1.56,1.42
		c-0.53,0.47-1.06,0.92-1.61,1.36c-0.61,0.48-1.23,0.93-1.85,1.39c-0.93,0.67-1.88,1.31-2.85,1.92c-0.39,0.25-0.78,0.49-1.18,0.72
		c-2.38,1.41-4.89,2.61-7.51,3.61c-0.38,0.14-0.76,0.28-1.15,0.42c-0.89,0.31-1.78,0.62-2.69,0.88l-1.87,0.56l-0.05-0.06
		c-3.86,0.96-7.88,1.52-12.05,1.52c-4.62,0-9.08-0.68-13.33-1.85c-5.55,6.84-12.22,12.67-19.74,17.24
		c9.94,5.04,21.17,7.89,33.07,7.89c13,0,25.19-3.39,35.78-9.33l1.62-0.97C265.78,208.53,272.27,202.95,277.72,196.31z"/>
	<path class="st2" d="M290.62,126.86c-2.63-7.95-6.55-15.31-11.57-21.78c-7.73,2.3-14.63,6.55-20.12,12.18
		c2.52,2.92,4.67,6.16,6.47,9.61H290.62z"/>
</g>
<g>
	<g>
		<path class="st0" d="M51.02,331.47c0-3.05,0.46-5.61,1.37-7.68c0.68-1.53,1.61-2.89,2.79-4.11c1.18-1.21,2.47-2.11,3.87-2.7
			c1.87-0.79,4.02-1.18,6.46-1.18c4.41,0,7.94,1.37,10.59,4.11c2.65,2.74,3.97,6.54,3.97,11.42c0,4.84-1.31,8.62-3.94,11.35
			c-2.63,2.73-6.14,4.1-10.54,4.1c-4.45,0-8-1.36-10.62-4.08C52.33,339.98,51.02,336.24,51.02,331.47z M57.25,331.27
			c0,3.39,0.78,5.96,2.35,7.71c1.57,1.75,3.56,2.63,5.97,2.63c2.41,0,4.39-0.87,5.93-2.61c1.55-1.74,2.32-4.34,2.32-7.81
			c0-3.43-0.75-5.99-2.26-7.68c-1.5-1.69-3.5-2.53-6-2.53c-2.49,0-4.5,0.85-6.03,2.56C58.01,325.24,57.25,327.82,57.25,331.27z"/>
		<path class="st0" d="M83.26,336.52l5.88-0.57c0.35,1.97,1.07,3.43,2.16,4.35c1.08,0.93,2.54,1.39,4.38,1.39
			c1.95,0,3.42-0.41,4.4-1.24c0.99-0.82,1.48-1.79,1.48-2.89c0-0.71-0.21-1.31-0.62-1.81c-0.42-0.5-1.14-0.93-2.18-1.3
			c-0.71-0.25-2.32-0.68-4.84-1.31c-3.24-0.8-5.52-1.79-6.82-2.96c-1.84-1.65-2.76-3.66-2.76-6.03c0-1.53,0.43-2.95,1.3-4.28
			c0.87-1.33,2.11-2.34,3.74-3.03c1.63-0.7,3.59-1.04,5.89-1.04c3.76,0,6.59,0.82,8.49,2.47c1.9,1.65,2.9,3.85,2.99,6.6l-6.05,0.27
			c-0.26-1.54-0.81-2.65-1.66-3.32c-0.85-0.67-2.13-1.01-3.83-1.01c-1.76,0-3.13,0.36-4.13,1.08c-0.64,0.46-0.96,1.08-0.96,1.86
			c0,0.71,0.3,1.31,0.9,1.82c0.76,0.64,2.62,1.31,5.56,2c2.94,0.69,5.12,1.41,6.53,2.16c1.41,0.74,2.51,1.76,3.31,3.04
			c0.8,1.29,1.2,2.88,1.2,4.77c0,1.72-0.48,3.32-1.43,4.82c-0.95,1.5-2.3,2.61-4.04,3.34c-1.74,0.73-3.92,1.09-6.52,1.09
			c-3.79,0-6.7-0.88-8.72-2.62C84.87,342.42,83.65,339.87,83.26,336.52z"/>
		<path class="st0" d="M116.95,346.26l-7.15-29.95h6.19l4.52,20.57l5.48-20.57h7.19l5.25,20.92l4.6-20.92h6.09l-7.27,29.95h-6.42
			l-5.97-22.39l-5.95,22.39H116.95z"/>
		<path class="st0" d="M176.89,346.26h-6.58l-2.62-6.8h-11.97l-2.47,6.8h-6.42l11.67-29.95h6.39L176.89,346.26z M165.76,334.41
			l-4.13-11.11l-4.05,11.11H165.76z"/>
		<path class="st0" d="M180.27,346.26v-29.71h6.05v24.66h15.04v5.05H180.27z"/>
		<path class="st0" d="M205.64,316.31h11.05c2.49,0,4.39,0.19,5.7,0.57c1.76,0.52,3.26,1.44,4.52,2.76
			c1.25,1.32,2.21,2.94,2.86,4.85c0.65,1.91,0.98,4.27,0.98,7.08c0,2.47-0.31,4.59-0.92,6.38c-0.75,2.18-1.82,3.94-3.21,5.29
			c-1.05,1.02-2.47,1.82-4.25,2.39c-1.34,0.42-3.12,0.63-5.35,0.63h-11.38V316.31z M211.69,321.38v19.84h4.52
			c1.69,0,2.91-0.09,3.66-0.29c0.98-0.25,1.79-0.66,2.44-1.25c0.65-0.58,1.17-1.55,1.58-2.89c0.41-1.34,0.61-3.17,0.61-5.49
			c0-2.32-0.2-4.09-0.61-5.33c-0.41-1.24-0.98-2.21-1.72-2.9c-0.74-0.7-1.67-1.16-2.8-1.41c-0.84-0.19-2.5-0.29-4.96-0.29H211.69z"
			/>
		<path class="st0" d="M234.65,331.47c0-3.05,0.46-5.61,1.37-7.68c0.68-1.53,1.61-2.89,2.79-4.11c1.18-1.21,2.47-2.11,3.87-2.7
			c1.87-0.79,4.02-1.18,6.46-1.18c4.41,0,7.94,1.37,10.59,4.11c2.65,2.74,3.97,6.54,3.97,11.42c0,4.84-1.31,8.62-3.94,11.35
			c-2.63,2.73-6.14,4.1-10.54,4.1c-4.45,0-8-1.36-10.62-4.08C235.97,339.98,234.65,336.24,234.65,331.47z M240.89,331.27
			c0,3.39,0.78,5.96,2.35,7.71c1.57,1.75,3.55,2.63,5.97,2.63c2.41,0,4.39-0.87,5.94-2.61c1.55-1.74,2.32-4.34,2.32-7.81
			c0-3.43-0.75-5.99-2.26-7.68c-1.51-1.69-3.5-2.53-6-2.53c-2.49,0-4.5,0.85-6.03,2.56C241.65,325.24,240.89,327.82,240.89,331.27z"
			/>
	</g>
	<g>
		<path class="st0" d="M299.22,335.25l5.86,1.86c-0.9,3.27-2.39,5.7-4.48,7.28c-2.09,1.59-4.74,2.38-7.96,2.38
			c-3.98,0-7.25-1.36-9.81-4.08c-2.56-2.72-3.84-6.43-3.84-11.15c0-4.99,1.29-8.86,3.86-11.62c2.58-2.76,5.96-4.14,10.15-4.14
			c3.66,0,6.64,1.08,8.93,3.25c1.36,1.28,2.38,3.12,3.07,5.52l-5.99,1.43c-0.35-1.55-1.09-2.78-2.22-3.68
			c-1.12-0.9-2.49-1.35-4.1-1.35c-2.22,0-4.02,0.8-5.4,2.39c-1.38,1.59-2.07,4.17-2.07,7.74c0,3.79,0.68,6.48,2.04,8.09
			c1.36,1.61,3.13,2.41,5.31,2.41c1.61,0,2.99-0.51,4.15-1.53C297.88,339.05,298.71,337.44,299.22,335.25z"/>
		<path class="st0" d="M310.29,346.26v-29.95h12.73c3.2,0,5.53,0.27,6.98,0.81c1.45,0.54,2.61,1.5,3.48,2.87
			c0.87,1.38,1.31,2.95,1.31,4.72c0,2.25-0.66,4.1-1.98,5.57c-1.32,1.46-3.3,2.39-5.92,2.77c1.31,0.76,2.39,1.6,3.24,2.51
			c0.85,0.91,2,2.53,3.44,4.86l3.66,5.84h-7.23l-4.37-6.52c-1.55-2.33-2.62-3.8-3.19-4.4c-0.57-0.61-1.18-1.02-1.82-1.25
			c-0.64-0.22-1.65-0.34-3.04-0.34h-1.23v12.5H310.29z M316.34,328.98h4.47c2.9,0,4.71-0.12,5.43-0.37c0.72-0.25,1.29-0.67,1.7-1.27
			c0.41-0.6,0.61-1.35,0.61-2.25c0-1.01-0.27-1.82-0.81-2.44c-0.54-0.62-1.3-1.01-2.28-1.17c-0.49-0.07-1.96-0.1-4.41-0.1h-4.72
			V328.98z"/>
		<path class="st0" d="M340.45,316.31h6.05v16.22c0,2.57,0.08,4.24,0.22,5c0.26,1.23,0.88,2.21,1.85,2.95
			c0.97,0.74,2.3,1.11,3.99,1.11c1.72,0,3.01-0.35,3.88-1.05c0.87-0.7,1.4-1.56,1.57-2.58c0.18-1.02,0.27-2.72,0.27-5.09v-16.57
			h6.05v15.73c0,3.6-0.16,6.14-0.49,7.62c-0.33,1.49-0.93,2.74-1.81,3.76c-0.88,1.02-2.05,1.84-3.52,2.44
			c-1.47,0.61-3.39,0.91-5.76,0.91c-2.86,0-5.03-0.33-6.51-0.99c-1.48-0.66-2.65-1.52-3.5-2.57c-0.86-1.06-1.42-2.16-1.7-3.32
			c-0.39-1.72-0.59-4.25-0.59-7.6V316.31z"/>
		<path class="st0" d="M368.11,346.26v-5.46l15.73-19.43h-13.96v-5.07h21.92v4.7l-16.41,20.21h17.04v5.05H368.11z"/>
	</g>
</g>
<g>
	<path class="st0" d="M157.4,391.8c1.48,1.06,3.1,1.91,4.84,2.53l-2.23,4.27c-0.91-0.27-1.8-0.65-2.68-1.12
		c-0.19-0.1-1.53-0.98-4.02-2.66c-1.96,0.86-4.13,1.29-6.52,1.29c-4.6,0-8.21-1.36-10.82-4.07c-2.61-2.71-3.91-6.52-3.91-11.42
		c0-4.89,1.31-8.69,3.92-11.41c2.62-2.72,6.16-4.08,10.64-4.08c4.44,0,7.96,1.36,10.56,4.08c2.6,2.72,3.9,6.52,3.9,11.41
		c0,2.59-0.36,4.86-1.08,6.82C159.47,388.94,158.6,390.39,157.4,391.8z M152.54,388.38c0.78-0.91,1.36-2.02,1.75-3.31
		c0.39-1.29,0.58-2.78,0.58-4.45c0-3.46-0.76-6.04-2.29-7.75c-1.53-1.71-3.52-2.56-5.99-2.56c-2.46,0-4.46,0.86-6,2.57
		c-1.53,1.72-2.3,4.3-2.3,7.74c0,3.5,0.77,6.12,2.3,7.86c1.53,1.74,3.47,2.6,5.81,2.6c0.87,0,1.7-0.14,2.47-0.43
		c-1.23-0.8-2.47-1.43-3.74-1.88l1.7-3.45C148.83,386,150.73,387.02,152.54,388.38z"/>
	<path class="st0" d="M165.8,365.64h6.05v16.22c0,2.57,0.08,4.24,0.22,5c0.26,1.23,0.88,2.21,1.85,2.95
		c0.97,0.74,2.3,1.11,3.99,1.11c1.72,0,3.01-0.35,3.88-1.05c0.87-0.7,1.4-1.56,1.57-2.58c0.18-1.02,0.27-2.72,0.27-5.09v-16.57h6.05
		v15.73c0,3.6-0.16,6.14-0.49,7.62c-0.33,1.49-0.93,2.74-1.81,3.76c-0.88,1.02-2.05,1.84-3.52,2.44c-1.47,0.61-3.39,0.91-5.76,0.91
		c-2.86,0-5.03-0.33-6.51-0.99c-1.48-0.66-2.65-1.52-3.5-2.57c-0.86-1.06-1.42-2.16-1.7-3.32c-0.39-1.72-0.59-4.25-0.59-7.6V365.64z
		"/>
	<path class="st0" d="M195.18,363.93l2.82-6.11h6.44l-5.62,6.11H195.18z M195.88,395.6v-29.95h6.05v29.95H195.88z"/>
	<path class="st0" d="M207.6,395.6v-29.95h9.05l5.43,20.43l5.37-20.43h9.07v29.95h-5.62v-23.58l-5.95,23.58h-5.82l-5.92-23.58v23.58
		H207.6z"/>
	<path class="st0" d="M242.36,395.6v-29.95h6.05v29.95H242.36z"/>
	<path class="st0" d="M273.33,384.58l5.86,1.86c-0.9,3.27-2.39,5.7-4.48,7.28c-2.09,1.59-4.74,2.38-7.96,2.38
		c-3.98,0-7.25-1.36-9.81-4.08c-2.56-2.72-3.84-6.43-3.84-11.15c0-4.99,1.29-8.86,3.86-11.62c2.57-2.76,5.96-4.14,10.15-4.14
		c3.66,0,6.64,1.08,8.93,3.25c1.36,1.28,2.38,3.12,3.06,5.52l-5.99,1.43c-0.35-1.55-1.09-2.78-2.22-3.68
		c-1.12-0.9-2.49-1.35-4.1-1.35c-2.22,0-4.02,0.8-5.4,2.39c-1.38,1.59-2.07,4.17-2.07,7.74c0,3.79,0.68,6.48,2.04,8.09
		c1.36,1.61,3.13,2.41,5.31,2.41c1.61,0,2.99-0.51,4.15-1.53C272,388.38,272.83,386.78,273.33,384.58z"/>
	<path class="st0" d="M311.39,395.6h-6.58l-2.62-6.8h-11.97l-2.47,6.8h-6.42l11.67-29.95h6.4L311.39,395.6z M300.26,383.75
		l-4.13-11.11l-4.04,11.11H300.26z"/>
</g>
</svg>
